<?xml version="1.0" ?><svg data-name="Layer 1" id="Layer_1" viewBox="0 0 64 64" xmlns="http://www.w3.org/2000/svg"><defs><style>.cls-1{fill:#6e9eff;}.cls-2{fill:#fc445d;}.cls-3{fill:#b13fff;}.cls-4{fill:#002849;}</style></defs><title/><path class="cls-1" d="M19.64,30h0Z"/><path class="cls-1" d="M44.33,30h0Z"/><path class="cls-2" d="M34.85,49.93a3.75,3.75,0,0,0-.59-.77,3,3,0,0,0-3.62-.39,3.53,3.53,0,0,0-1.3,3.91A9.44,9.44,0,0,0,31,55.45a5.89,5.89,0,0,1,1,4.78c-.1.57-.45,1.19-.29,1.77a2.46,2.46,0,0,0,.84-.63c.26-.25.5-.52.73-.78a9.6,9.6,0,0,0,2.38-7.9A7,7,0,0,0,34.85,49.93Z"/><path class="cls-2" d="M46.73,42.29a3.74,3.74,0,0,0-.59-.77,3,3,0,0,0-3.62-.39A3.53,3.53,0,0,0,41.21,45a9.44,9.44,0,0,0,1.67,2.76,5.89,5.89,0,0,1,1,4.78c-.1.57-.45,1.19-.29,1.77a2.46,2.46,0,0,0,.84-.63c.26-.25.5-.52.73-.78A9.6,9.6,0,0,0,47.54,45,7,7,0,0,0,46.73,42.29Z"/><path class="cls-2" d="M22,42.28a3.74,3.74,0,0,0-.59-.77,3,3,0,0,0-3.62-.39A3.53,3.53,0,0,0,16.52,45a9.45,9.45,0,0,0,1.67,2.76,5.89,5.89,0,0,1,1,4.78c-.1.57-.45,1.19-.29,1.77a2.46,2.46,0,0,0,.84-.63c.26-.25.5-.52.73-.78A9.6,9.6,0,0,0,22.85,45,7,7,0,0,0,22,42.28Z"/><circle class="cls-2" cx="31.99" cy="4.24" r="2.24"/><path class="cls-3" d="M19.65,29.94H44.33L32,10Z"/><path class="cls-4" d="M47.59,41.78a4.79,4.79,0,0,0-.75-1,3.82,3.82,0,0,0-1.49-.89V30.14A14.74,14.74,0,0,0,33,9.06V7.31a3.24,3.24,0,1,0-2,0V9.06a14.78,14.78,0,0,0-8.73,3.6,1,1,0,1,0,1.32,1.51,12.78,12.78,0,0,1,6.53-3L19.83,27.76a12.76,12.76,0,0,1,1.41-10.88,1,1,0,0,0-1.68-1.09,14.72,14.72,0,0,0-.92,14.35v9.62a4,4,0,0,0-1.34.5,4.55,4.55,0,0,0-1.74,5,8.37,8.37,0,0,0,1.5,2.63l.32.44a4.9,4.9,0,0,1,.82,4,3.57,3.57,0,0,1-.12.44,3.05,3.05,0,0,0-.15,1.77,1,1,0,0,0,1,.73,1,1,0,0,0,.28,0,2.91,2.91,0,0,0,1.18-.8l.07-.07c.26-.25.5-.52.79-.84a11.23,11.23,0,0,0,1.37-1.89,10.45,10.45,0,0,0,1.33-4.8,1,1,0,0,0-1-1,1,1,0,0,0-1,1,8.47,8.47,0,0,1-1.07,3.89,8.63,8.63,0,0,1-.55.84A6.63,6.63,0,0,0,19,47.2l-.34-.46a6.66,6.66,0,0,1-1.18-2A2.57,2.57,0,0,1,18.35,42a2,2,0,0,1,2.39.24,2.8,2.8,0,0,1,.43.57,4,4,0,0,1,.27.56,1,1,0,0,0,1.86-.73,6,6,0,0,0-.4-.84,4.79,4.79,0,0,0-.75-1,3.81,3.81,0,0,0-1.5-.9V33.28A14.77,14.77,0,0,0,31,38.55v9a3.91,3.91,0,0,0-.88.38,4.55,4.55,0,0,0-1.74,5,8.22,8.22,0,0,0,1.49,2.63l.33.44a4.89,4.89,0,0,1,.82,4,3.59,3.59,0,0,1-.12.44,3,3,0,0,0-.15,1.76,1,1,0,0,0,1,.73A1,1,0,0,0,32,63a2.91,2.91,0,0,0,1.17-.8l.08-.08c.27-.26.51-.54.79-.84a11.27,11.27,0,0,0,1.37-1.89A9.69,9.69,0,0,0,36,58.19a1,1,0,0,0-1.85-.75,7.47,7.47,0,0,1-.45.92,8.8,8.8,0,0,1-.54.84,6.63,6.63,0,0,0-1.3-4.34l-.34-.46a6.65,6.65,0,0,1-1.17-2,2.57,2.57,0,0,1,.87-2.78,2,2,0,0,1,2.39.25,2.76,2.76,0,0,1,.43.57,6,6,0,0,1,.68,2.35,10.64,10.64,0,0,1,0,2.27,1,1,0,1,0,2,.21,12.63,12.63,0,0,0,0-2.7,7.86,7.86,0,0,0-.94-3.15,4.77,4.77,0,0,0-.75-1,3.85,3.85,0,0,0-2-1V38.55a14.77,14.77,0,0,0,10.35-5.27v6.49a3.93,3.93,0,0,0-1.35.51A1,1,0,1,0,43,42a2,2,0,0,1,2.39.25,2.8,2.8,0,0,1,.43.57,6,6,0,0,1,.68,2.35,9.09,9.09,0,0,1-1,5.57,8.63,8.63,0,0,1-.55.84,6.63,6.63,0,0,0-1.3-4.34l-.34-.46a6.68,6.68,0,0,1-1.18-2,2.86,2.86,0,0,1-.07-1.2,1,1,0,0,0-2-.3,4.84,4.84,0,0,0,.13,2.06A8.26,8.26,0,0,0,41.75,48l.32.44a4.9,4.9,0,0,1,.82,4,3.65,3.65,0,0,1-.12.44,3,3,0,0,0-.15,1.77,1,1,0,0,0,1,.74,1,1,0,0,0,.28,0,2.91,2.91,0,0,0,1.18-.8l.07-.07c.26-.25.5-.52.79-.84a11.23,11.23,0,0,0,1.37-1.89,11.07,11.07,0,0,0,1.26-6.78A7.85,7.85,0,0,0,47.59,41.78ZM30.75,4.24A1.24,1.24,0,1,1,32,5.48,1.24,1.24,0,0,1,30.75,4.24ZM32,11.91,42.55,29H21.44ZM32,36.6A12.79,12.79,0,0,1,21.39,31H42.6A12.79,12.79,0,0,1,32,36.6Zm12.16-8.84L33.88,11.17A12.76,12.76,0,0,1,44.16,27.76Z"/></svg>